<mxfile host="app.diagrams.net" modified="2023-12-10T14:31:56.205Z" agent="Mozilla/5.0 (Macintosh; Intel Mac OS X 10_15_7) AppleWebKit/537.36 (KHTML, like Gecko) Chrome/116.0.0.0 Safari/537.36" etag="3aEAY3fMz4eeLYkPU28Y" version="22.1.7" type="device">
  <diagram name="gaia arch" id="Yh2IRWk2mxZPqIJDULCW">
    <mxGraphModel dx="758" dy="487" grid="1" gridSize="10" guides="1" tooltips="1" connect="1" arrows="1" fold="1" page="1" pageScale="1" pageWidth="827" pageHeight="1169" math="0" shadow="0">
      <root>
        <mxCell id="0" />
        <mxCell id="1" parent="0" />
        <mxCell id="9U-HjYnyIBl49_HBHONE-33" value="" style="rounded=0;whiteSpace=wrap;html=1;fillColor=#f5f5f5;fontColor=#333333;strokeColor=#666666;" vertex="1" parent="1">
          <mxGeometry x="80" y="600" width="560" height="200" as="geometry" />
        </mxCell>
        <mxCell id="9U-HjYnyIBl49_HBHONE-20" value="" style="rounded=0;whiteSpace=wrap;html=1;fillColor=#ffe6cc;strokeColor=#d79b00;" vertex="1" parent="1">
          <mxGeometry x="80" y="160" width="560" height="380" as="geometry" />
        </mxCell>
        <mxCell id="9U-HjYnyIBl49_HBHONE-7" style="edgeStyle=orthogonalEdgeStyle;rounded=0;orthogonalLoop=1;jettySize=auto;html=1;entryX=0.5;entryY=0;entryDx=0;entryDy=0;startArrow=classic;startFill=1;" edge="1" parent="1" source="9U-HjYnyIBl49_HBHONE-3" target="9U-HjYnyIBl49_HBHONE-5">
          <mxGeometry relative="1" as="geometry" />
        </mxCell>
        <mxCell id="9U-HjYnyIBl49_HBHONE-3" value="«Annotation»&lt;br&gt;&lt;b&gt;GaiaCarbonFunctionsConsumer&lt;/b&gt;" style="html=1;dropTarget=0;whiteSpace=wrap;fillColor=#dae8fc;strokeColor=#6c8ebf;" vertex="1" parent="1">
          <mxGeometry x="120" y="250" width="200" height="70" as="geometry" />
        </mxCell>
        <mxCell id="9U-HjYnyIBl49_HBHONE-4" value="" style="shape=module;jettyWidth=8;jettyHeight=4;fillColor=#dae8fc;strokeColor=#6c8ebf;" vertex="1" parent="9U-HjYnyIBl49_HBHONE-3">
          <mxGeometry x="1" width="20" height="20" relative="1" as="geometry">
            <mxPoint x="-27" y="7" as="offset" />
          </mxGeometry>
        </mxCell>
        <mxCell id="9U-HjYnyIBl49_HBHONE-10" style="edgeStyle=orthogonalEdgeStyle;rounded=0;orthogonalLoop=1;jettySize=auto;html=1;entryX=0.5;entryY=0;entryDx=0;entryDy=0;startArrow=classic;startFill=1;" edge="1" parent="1" source="9U-HjYnyIBl49_HBHONE-5" target="9U-HjYnyIBl49_HBHONE-8">
          <mxGeometry relative="1" as="geometry" />
        </mxCell>
        <mxCell id="9U-HjYnyIBl49_HBHONE-5" value="«Annotation»&lt;br&gt;&lt;b&gt;FunctionsRouter&lt;/b&gt;" style="html=1;dropTarget=0;whiteSpace=wrap;fillColor=#dae8fc;strokeColor=#6c8ebf;" vertex="1" parent="1">
          <mxGeometry x="130" y="360" width="180" height="60" as="geometry" />
        </mxCell>
        <mxCell id="9U-HjYnyIBl49_HBHONE-6" value="" style="shape=module;jettyWidth=8;jettyHeight=4;fillColor=#dae8fc;strokeColor=#6c8ebf;" vertex="1" parent="9U-HjYnyIBl49_HBHONE-5">
          <mxGeometry x="1" width="20" height="20" relative="1" as="geometry">
            <mxPoint x="-27" y="7" as="offset" />
          </mxGeometry>
        </mxCell>
        <mxCell id="9U-HjYnyIBl49_HBHONE-39" style="edgeStyle=orthogonalEdgeStyle;rounded=0;orthogonalLoop=1;jettySize=auto;html=1;startArrow=classic;startFill=1;" edge="1" parent="1" source="9U-HjYnyIBl49_HBHONE-8" target="9U-HjYnyIBl49_HBHONE-35">
          <mxGeometry relative="1" as="geometry" />
        </mxCell>
        <mxCell id="9U-HjYnyIBl49_HBHONE-8" value="«Annotation»&lt;br&gt;&lt;b&gt;FunctionsCoordinator&lt;/b&gt;" style="html=1;dropTarget=0;whiteSpace=wrap;fillColor=#dae8fc;strokeColor=#6c8ebf;" vertex="1" parent="1">
          <mxGeometry x="130" y="460" width="180" height="60" as="geometry" />
        </mxCell>
        <mxCell id="9U-HjYnyIBl49_HBHONE-9" value="" style="shape=module;jettyWidth=8;jettyHeight=4;fillColor=#dae8fc;strokeColor=#6c8ebf;" vertex="1" parent="9U-HjYnyIBl49_HBHONE-8">
          <mxGeometry x="1" width="20" height="20" relative="1" as="geometry">
            <mxPoint x="-27" y="7" as="offset" />
          </mxGeometry>
        </mxCell>
        <mxCell id="9U-HjYnyIBl49_HBHONE-11" value="sendRequest" style="text;html=1;align=center;verticalAlign=middle;resizable=0;points=[];autosize=1;strokeColor=none;fillColor=none;" vertex="1" parent="1">
          <mxGeometry x="125" y="325" width="90" height="30" as="geometry" />
        </mxCell>
        <mxCell id="9U-HjYnyIBl49_HBHONE-12" value="fulfillment" style="text;html=1;align=center;verticalAlign=middle;resizable=0;points=[];autosize=1;strokeColor=none;fillColor=none;" vertex="1" parent="1">
          <mxGeometry x="232" y="325" width="70" height="30" as="geometry" />
        </mxCell>
        <mxCell id="9U-HjYnyIBl49_HBHONE-13" value="startSendRequest" style="text;html=1;align=center;verticalAlign=middle;resizable=0;points=[];autosize=1;strokeColor=none;fillColor=none;" vertex="1" parent="1">
          <mxGeometry x="106" y="425" width="120" height="30" as="geometry" />
        </mxCell>
        <mxCell id="9U-HjYnyIBl49_HBHONE-14" value="fulfill" style="text;html=1;align=center;verticalAlign=middle;resizable=0;points=[];autosize=1;strokeColor=none;fillColor=none;" vertex="1" parent="1">
          <mxGeometry x="242" y="425" width="50" height="30" as="geometry" />
        </mxCell>
        <mxCell id="9U-HjYnyIBl49_HBHONE-22" style="edgeStyle=orthogonalEdgeStyle;rounded=0;orthogonalLoop=1;jettySize=auto;html=1;" edge="1" parent="1" source="9U-HjYnyIBl49_HBHONE-15" target="9U-HjYnyIBl49_HBHONE-21">
          <mxGeometry relative="1" as="geometry" />
        </mxCell>
        <mxCell id="9U-HjYnyIBl49_HBHONE-15" value="EOA" style="shape=umlActor;verticalLabelPosition=bottom;verticalAlign=top;html=1;fillColor=#fff2cc;strokeColor=#d6b656;" vertex="1" parent="1">
          <mxGeometry x="242" y="20" width="30" height="60" as="geometry" />
        </mxCell>
        <mxCell id="9U-HjYnyIBl49_HBHONE-26" style="edgeStyle=orthogonalEdgeStyle;rounded=0;orthogonalLoop=1;jettySize=auto;html=1;entryX=0.25;entryY=0;entryDx=0;entryDy=0;" edge="1" parent="1" source="9U-HjYnyIBl49_HBHONE-18" target="9U-HjYnyIBl49_HBHONE-3">
          <mxGeometry relative="1" as="geometry">
            <Array as="points">
              <mxPoint x="108" y="180" />
              <mxPoint x="170" y="180" />
            </Array>
          </mxGeometry>
        </mxCell>
        <mxCell id="9U-HjYnyIBl49_HBHONE-29" value="sendRequest" style="edgeLabel;html=1;align=center;verticalAlign=middle;resizable=0;points=[];" vertex="1" connectable="0" parent="9U-HjYnyIBl49_HBHONE-26">
          <mxGeometry x="-0.6301" relative="1" as="geometry">
            <mxPoint as="offset" />
          </mxGeometry>
        </mxCell>
        <mxCell id="9U-HjYnyIBl49_HBHONE-18" value="«Annotation»&lt;br&gt;&lt;b&gt;ChainlinkAutomation&lt;br&gt;(not implemented)&lt;br&gt;&lt;/b&gt;" style="html=1;dropTarget=0;whiteSpace=wrap;fillColor=#dae8fc;strokeColor=#6c8ebf;" vertex="1" parent="1">
          <mxGeometry x="35" y="20" width="145" height="60" as="geometry" />
        </mxCell>
        <mxCell id="9U-HjYnyIBl49_HBHONE-19" value="" style="shape=module;jettyWidth=8;jettyHeight=4;fillColor=#dae8fc;strokeColor=#6c8ebf;" vertex="1" parent="9U-HjYnyIBl49_HBHONE-18">
          <mxGeometry x="1" width="20" height="20" relative="1" as="geometry">
            <mxPoint x="-27" y="7" as="offset" />
          </mxGeometry>
        </mxCell>
        <mxCell id="9U-HjYnyIBl49_HBHONE-23" style="edgeStyle=orthogonalEdgeStyle;rounded=0;orthogonalLoop=1;jettySize=auto;html=1;entryX=0.5;entryY=0;entryDx=0;entryDy=0;" edge="1" parent="1" source="9U-HjYnyIBl49_HBHONE-21" target="9U-HjYnyIBl49_HBHONE-3">
          <mxGeometry relative="1" as="geometry" />
        </mxCell>
        <mxCell id="9U-HjYnyIBl49_HBHONE-53" style="edgeStyle=orthogonalEdgeStyle;rounded=0;orthogonalLoop=1;jettySize=auto;html=1;entryX=0.5;entryY=0;entryDx=0;entryDy=0;exitX=0.9;exitY=0.933;exitDx=0;exitDy=0;exitPerimeter=0;" edge="1" parent="1" source="9U-HjYnyIBl49_HBHONE-21" target="9U-HjYnyIBl49_HBHONE-51">
          <mxGeometry relative="1" as="geometry">
            <mxPoint x="560" y="180" as="sourcePoint" />
          </mxGeometry>
        </mxCell>
        <mxCell id="9U-HjYnyIBl49_HBHONE-21" value="Alchemy RPC/WSS" style="rounded=0;whiteSpace=wrap;html=1;fillColor=#d5e8d4;strokeColor=#82b366;" vertex="1" parent="1">
          <mxGeometry x="200" y="146" width="400" height="30" as="geometry" />
        </mxCell>
        <mxCell id="9U-HjYnyIBl49_HBHONE-24" value="sendRequest" style="text;html=1;align=center;verticalAlign=middle;resizable=0;points=[];autosize=1;strokeColor=none;fillColor=none;" vertex="1" parent="1">
          <mxGeometry x="310" y="176" width="90" height="30" as="geometry" />
        </mxCell>
        <mxCell id="9U-HjYnyIBl49_HBHONE-25" value="sendRequest" style="text;html=1;align=center;verticalAlign=middle;resizable=0;points=[];autosize=1;strokeColor=none;fillColor=none;" vertex="1" parent="1">
          <mxGeometry x="290" y="80" width="90" height="30" as="geometry" />
        </mxCell>
        <mxCell id="9U-HjYnyIBl49_HBHONE-30" value="«Annotation»&lt;br&gt;&lt;b&gt;NFE Service&lt;/b&gt;" style="html=1;dropTarget=0;whiteSpace=wrap;fillColor=#d5e8d4;strokeColor=#82b366;" vertex="1" parent="1">
          <mxGeometry x="130" y="730" width="180" height="60" as="geometry" />
        </mxCell>
        <mxCell id="9U-HjYnyIBl49_HBHONE-31" value="" style="shape=module;jettyWidth=8;jettyHeight=4;fillColor=#d5e8d4;strokeColor=#82b366;" vertex="1" parent="9U-HjYnyIBl49_HBHONE-30">
          <mxGeometry x="1" width="20" height="20" relative="1" as="geometry">
            <mxPoint x="-27" y="7" as="offset" />
          </mxGeometry>
        </mxCell>
        <mxCell id="9U-HjYnyIBl49_HBHONE-32" value="&lt;b&gt;OnChain - Polygon Mumbai&lt;/b&gt;" style="text;html=1;align=center;verticalAlign=middle;resizable=0;points=[];autosize=1;strokeColor=none;fillColor=none;" vertex="1" parent="1">
          <mxGeometry x="311" y="510" width="180" height="30" as="geometry" />
        </mxCell>
        <mxCell id="9U-HjYnyIBl49_HBHONE-34" value="&lt;b&gt;OffChain&lt;/b&gt;" style="text;html=1;align=center;verticalAlign=middle;resizable=0;points=[];autosize=1;strokeColor=none;fillColor=none;" vertex="1" parent="1">
          <mxGeometry x="570" y="770" width="70" height="30" as="geometry" />
        </mxCell>
        <mxCell id="9U-HjYnyIBl49_HBHONE-37" style="edgeStyle=orthogonalEdgeStyle;rounded=0;orthogonalLoop=1;jettySize=auto;html=1;startArrow=classic;startFill=1;" edge="1" parent="1" source="9U-HjYnyIBl49_HBHONE-35" target="9U-HjYnyIBl49_HBHONE-30">
          <mxGeometry relative="1" as="geometry" />
        </mxCell>
        <mxCell id="9U-HjYnyIBl49_HBHONE-38" value="api request/response" style="edgeLabel;html=1;align=center;verticalAlign=middle;resizable=0;points=[];" vertex="1" connectable="0" parent="9U-HjYnyIBl49_HBHONE-37">
          <mxGeometry x="-0.04" y="-1" relative="1" as="geometry">
            <mxPoint as="offset" />
          </mxGeometry>
        </mxCell>
        <mxCell id="9U-HjYnyIBl49_HBHONE-35" value="«Annotation»&lt;br&gt;&lt;b&gt;DON&lt;/b&gt;" style="html=1;dropTarget=0;whiteSpace=wrap;fillColor=#dae8fc;strokeColor=#6c8ebf;" vertex="1" parent="1">
          <mxGeometry x="130" y="620" width="180" height="60" as="geometry" />
        </mxCell>
        <mxCell id="9U-HjYnyIBl49_HBHONE-36" value="" style="shape=module;jettyWidth=8;jettyHeight=4;fillColor=#dae8fc;strokeColor=#6c8ebf;" vertex="1" parent="9U-HjYnyIBl49_HBHONE-35">
          <mxGeometry x="1" width="20" height="20" relative="1" as="geometry">
            <mxPoint x="-27" y="7" as="offset" />
          </mxGeometry>
        </mxCell>
        <mxCell id="9U-HjYnyIBl49_HBHONE-40" value="OracleRequest Event" style="text;html=1;align=center;verticalAlign=middle;resizable=0;points=[];autosize=1;strokeColor=none;fillColor=none;" vertex="1" parent="1">
          <mxGeometry x="85" y="555" width="140" height="30" as="geometry" />
        </mxCell>
        <mxCell id="9U-HjYnyIBl49_HBHONE-41" value="Transmit the Result to OnChain" style="text;html=1;align=center;verticalAlign=middle;resizable=0;points=[];autosize=1;strokeColor=none;fillColor=none;" vertex="1" parent="1">
          <mxGeometry x="224" y="555" width="190" height="30" as="geometry" />
        </mxCell>
        <mxCell id="9U-HjYnyIBl49_HBHONE-44" style="edgeStyle=orthogonalEdgeStyle;rounded=0;orthogonalLoop=1;jettySize=auto;html=1;entryX=0.75;entryY=0;entryDx=0;entryDy=0;startArrow=classic;startFill=1;" edge="1" parent="1" source="9U-HjYnyIBl49_HBHONE-42" target="9U-HjYnyIBl49_HBHONE-21">
          <mxGeometry relative="1" as="geometry" />
        </mxCell>
        <mxCell id="9U-HjYnyIBl49_HBHONE-45" value="listening events" style="edgeLabel;html=1;align=center;verticalAlign=middle;resizable=0;points=[];" vertex="1" connectable="0" parent="9U-HjYnyIBl49_HBHONE-44">
          <mxGeometry x="0.0806" y="-1" relative="1" as="geometry">
            <mxPoint x="-31" y="13" as="offset" />
          </mxGeometry>
        </mxCell>
        <mxCell id="9U-HjYnyIBl49_HBHONE-42" value="«Annotation»&lt;br&gt;&lt;b&gt;OnChainListener&lt;br&gt;EventServer&lt;/b&gt;" style="html=1;dropTarget=0;whiteSpace=wrap;fillColor=#dae8fc;strokeColor=#6c8ebf;" vertex="1" parent="1">
          <mxGeometry x="454" y="20" width="145" height="60" as="geometry" />
        </mxCell>
        <mxCell id="9U-HjYnyIBl49_HBHONE-43" value="" style="shape=module;jettyWidth=8;jettyHeight=4;fillColor=#dae8fc;strokeColor=#6c8ebf;" vertex="1" parent="9U-HjYnyIBl49_HBHONE-42">
          <mxGeometry x="1" width="20" height="20" relative="1" as="geometry">
            <mxPoint x="-27" y="7" as="offset" />
          </mxGeometry>
        </mxCell>
        <mxCell id="9U-HjYnyIBl49_HBHONE-49" style="edgeStyle=orthogonalEdgeStyle;rounded=0;orthogonalLoop=1;jettySize=auto;html=1;entryX=0.9;entryY=0.033;entryDx=0;entryDy=0;entryPerimeter=0;" edge="1" parent="1" source="9U-HjYnyIBl49_HBHONE-42" target="9U-HjYnyIBl49_HBHONE-21">
          <mxGeometry relative="1" as="geometry" />
        </mxCell>
        <mxCell id="9U-HjYnyIBl49_HBHONE-50" value="request to mint NFT" style="edgeLabel;html=1;align=center;verticalAlign=middle;resizable=0;points=[];" vertex="1" connectable="0" parent="9U-HjYnyIBl49_HBHONE-49">
          <mxGeometry x="0.4827" y="2" relative="1" as="geometry">
            <mxPoint x="18" y="5" as="offset" />
          </mxGeometry>
        </mxCell>
        <mxCell id="9U-HjYnyIBl49_HBHONE-58" style="edgeStyle=orthogonalEdgeStyle;rounded=0;orthogonalLoop=1;jettySize=auto;html=1;startArrow=classic;startFill=1;" edge="1" parent="1" source="9U-HjYnyIBl49_HBHONE-51" target="9U-HjYnyIBl49_HBHONE-56">
          <mxGeometry relative="1" as="geometry" />
        </mxCell>
        <mxCell id="9U-HjYnyIBl49_HBHONE-51" value="«Annotation»&lt;br&gt;&lt;b&gt;GaiaCarbonNFT&lt;/b&gt;" style="html=1;dropTarget=0;whiteSpace=wrap;fillColor=#dae8fc;strokeColor=#6c8ebf;" vertex="1" parent="1">
          <mxGeometry x="420" y="250" width="200" height="70" as="geometry" />
        </mxCell>
        <mxCell id="9U-HjYnyIBl49_HBHONE-52" value="" style="shape=module;jettyWidth=8;jettyHeight=4;fillColor=#dae8fc;strokeColor=#6c8ebf;" vertex="1" parent="9U-HjYnyIBl49_HBHONE-51">
          <mxGeometry x="1" width="20" height="20" relative="1" as="geometry">
            <mxPoint x="-27" y="7" as="offset" />
          </mxGeometry>
        </mxCell>
        <mxCell id="9U-HjYnyIBl49_HBHONE-55" value="mintNFT" style="text;html=1;align=center;verticalAlign=middle;resizable=0;points=[];autosize=1;strokeColor=none;fillColor=none;" vertex="1" parent="1">
          <mxGeometry x="491" y="177" width="70" height="30" as="geometry" />
        </mxCell>
        <mxCell id="9U-HjYnyIBl49_HBHONE-62" style="edgeStyle=orthogonalEdgeStyle;rounded=0;orthogonalLoop=1;jettySize=auto;html=1;startArrow=classic;startFill=1;" edge="1" parent="1" source="9U-HjYnyIBl49_HBHONE-56" target="9U-HjYnyIBl49_HBHONE-60">
          <mxGeometry relative="1" as="geometry">
            <Array as="points">
              <mxPoint x="520" y="560" />
              <mxPoint x="509" y="560" />
            </Array>
          </mxGeometry>
        </mxCell>
        <mxCell id="9U-HjYnyIBl49_HBHONE-63" value="generate random number" style="edgeLabel;html=1;align=center;verticalAlign=middle;resizable=0;points=[];" vertex="1" connectable="0" parent="9U-HjYnyIBl49_HBHONE-62">
          <mxGeometry x="0.0959" y="-1" relative="1" as="geometry">
            <mxPoint as="offset" />
          </mxGeometry>
        </mxCell>
        <mxCell id="9U-HjYnyIBl49_HBHONE-56" value="«Annotation»&lt;br&gt;&lt;b&gt;FunctionsCoordinator&lt;/b&gt;" style="html=1;dropTarget=0;whiteSpace=wrap;fillColor=#dae8fc;strokeColor=#6c8ebf;" vertex="1" parent="1">
          <mxGeometry x="430" y="425" width="180" height="60" as="geometry" />
        </mxCell>
        <mxCell id="9U-HjYnyIBl49_HBHONE-57" value="" style="shape=module;jettyWidth=8;jettyHeight=4;fillColor=#dae8fc;strokeColor=#6c8ebf;" vertex="1" parent="9U-HjYnyIBl49_HBHONE-56">
          <mxGeometry x="1" width="20" height="20" relative="1" as="geometry">
            <mxPoint x="-27" y="7" as="offset" />
          </mxGeometry>
        </mxCell>
        <mxCell id="9U-HjYnyIBl49_HBHONE-59" value="request for random number" style="text;html=1;align=center;verticalAlign=middle;resizable=0;points=[];autosize=1;strokeColor=none;fillColor=none;" vertex="1" parent="1">
          <mxGeometry x="448" y="355" width="170" height="30" as="geometry" />
        </mxCell>
        <mxCell id="9U-HjYnyIBl49_HBHONE-60" value="«Annotation»&lt;br&gt;&lt;b&gt;VRF2&lt;/b&gt;" style="html=1;dropTarget=0;whiteSpace=wrap;fillColor=#dae8fc;strokeColor=#6c8ebf;" vertex="1" parent="1">
          <mxGeometry x="419" y="620" width="180" height="60" as="geometry" />
        </mxCell>
        <mxCell id="9U-HjYnyIBl49_HBHONE-61" value="" style="shape=module;jettyWidth=8;jettyHeight=4;fillColor=#dae8fc;strokeColor=#6c8ebf;" vertex="1" parent="9U-HjYnyIBl49_HBHONE-60">
          <mxGeometry x="1" width="20" height="20" relative="1" as="geometry">
            <mxPoint x="-27" y="7" as="offset" />
          </mxGeometry>
        </mxCell>
        <mxCell id="9U-HjYnyIBl49_HBHONE-65" style="edgeStyle=orthogonalEdgeStyle;rounded=0;orthogonalLoop=1;jettySize=auto;html=1;entryX=1;entryY=0.5;entryDx=0;entryDy=0;startArrow=classic;startFill=1;" edge="1" parent="1" source="9U-HjYnyIBl49_HBHONE-64" target="9U-HjYnyIBl49_HBHONE-20">
          <mxGeometry relative="1" as="geometry" />
        </mxCell>
        <mxCell id="9U-HjYnyIBl49_HBHONE-64" value="OpenSea&lt;br&gt;NFT Marketplace" style="rounded=0;whiteSpace=wrap;html=1;fillColor=#fff2cc;strokeColor=#d6b656;" vertex="1" parent="1">
          <mxGeometry x="680" y="250" width="120" height="60" as="geometry" />
        </mxCell>
        <mxCell id="9U-HjYnyIBl49_HBHONE-66" value="list Gaia collection and its &lt;br&gt;generated NFT&#39;s" style="text;html=1;align=center;verticalAlign=middle;resizable=0;points=[];autosize=1;strokeColor=none;fillColor=none;" vertex="1" parent="1">
          <mxGeometry x="660" y="310" width="160" height="40" as="geometry" />
        </mxCell>
      </root>
    </mxGraphModel>
  </diagram>
</mxfile>
